<svg version="1.1" xmlns="http://www.w3.org/2000/svg" viewBox="-282.62399978637694 -2523.1361145019528 2456.576025390625 2851.8401428222655"><desc>Created with Snap</desc><defs></defs><g><rect x="-282.62399978637694" y="-2523.1361145019528" width="2456.576025390625" height="2851.8401428222655" fill="#0560af" style=""></rect><g transform="matrix(15.6917,0,0,15.6917,160.6703,-2332.7407)"><title>NOUMPROJECT</title><path d="M93.58,15.73l-27.94-8a8.42,8.42,0,0,0-6.26.77l-55,31.76a8.77,8.77,0,0,0-3.19,12L22,88.2a8.76,8.76,0,0,0,12,3.22l55-31.76a8.38,8.38,0,0,0,3.79-5l7-28.22A8.91,8.91,0,0,0,93.58,15.73Zm5.35,11.09L92,54.13a8.42,8.42,0,0,1-3.83,5l-53.64,31a8.76,8.76,0,0,1-6.65.9,8.6,8.6,0,0,1-5.3-4l-20-34.7a8.6,8.6,0,0,1-.85-6.61,8.77,8.77,0,0,1,4.1-5.31l53.64-31a8.56,8.56,0,0,1,6.28-.8l27.13,7.63A8.81,8.81,0,0,1,98.93,26.82Z" fill="#bbe5e8" style=""></path><path d="M92.68,16.71L65.55,9.08a7.31,7.31,0,0,0-2-.26,8,8,0,0,0-3.93,1L6,40.8a8.27,8.27,0,0,0-3.87,5A8.11,8.11,0,0,0,2.94,52l20,34.7a8.1,8.1,0,0,0,5,3.81,8.27,8.27,0,0,0,6.28-.85l53.64-31A8,8,0,0,0,91.49,54l7-27.31A8.31,8.31,0,0,0,92.68,16.71ZM84.27,35.18A6,6,0,1,1,86.47,27,6,6,0,0,1,84.27,35.18Z" fill="#bbe5e8" style=""></path><desc>Created with Snap</desc><defs></defs></g><g><g transform="matrix(1.024,0,0,-1.024,0,0)"><path d="M24 0L24 37Q56 37 70 47Q84 57 84 80L84 460Q84 483 70 493Q56 503 24 503L24 540L262 540Q357 540 402 488Q447 436 447 326L447 214Q447 0 262 0L24 0ZM262 501L196 501L196 39L262 39Q296 39 316 65Q337 92 337 136L337 404Q337 448 316 474Q296 501 262 501ZM503 0L503 37Q535 37 549 47Q563 57 563 80L563 460Q563 483 549 493Q535 503 503 503L503 540L799 540Q825 540 836 544Q847 549 848 559L881 559L922 397L889 388Q871 436 854 460Q838 485 812 493Q787 501 743 501L672 501L672 286L744 286Q783 286 783 338L815 338L815 186L783 186Q783 247 744 247L672 247L672 39L776 39Q821 39 845 49Q870 59 881 87Q893 116 899 171L932 171L932 -21L898 -21Q894 -9 879 -5Q864 0 829 0L503 0ZM1068 145L1047 81Q1040 61 1056 49Q1073 37 1107 37L1107 0L940 0L940 37Q967 37 981 47Q995 57 1002 81L1152 544L1200 544L1356 79Q1365 53 1376 45Q1387 37 1418 37L1418 0L1188 0L1188 37Q1262 37 1249 78L1228 145L1068 145ZM1150 393L1081 183L1216 183L1150 393ZM1434 0L1434 37Q1466 37 1480 47Q1494 57 1494 80L1494 460Q1494 483 1480 493Q1466 503 1434 503L1434 540L1664 540L1664 503Q1632 503 1618 493Q1604 483 1604 460L1604 39L1667 39Q1712 39 1736 49Q1760 60 1772 89Q1784 118 1790 173L1823 173L1823 -21L1789 -21Q1785 -9 1770 -5Q1755 0 1720 0L1434 0Z" fill="#ffffff" style=""></path></g></g></g></svg>